<mxfile host="app.diagrams.net" agent="Mozilla/5.0 (Windows NT 10.0; Win64; x64) AppleWebKit/537.36 (KHTML, like Gecko) Chrome/134.0.0.0 Safari/537.36" version="26.2.7">
  <diagram name="Page-1" id="3oFAFUv6k6lDD6cKqLqO">
    <mxGraphModel dx="1188" dy="851" grid="0" gridSize="10" guides="1" tooltips="1" connect="1" arrows="1" fold="1" page="0" pageScale="1" pageWidth="850" pageHeight="1100" math="0" shadow="0">
      <root>
        <mxCell id="0" />
        <mxCell id="1" parent="0" />
        <mxCell id="mgPYWqPKoZ_mL2Z6Ottz-1" value="USERS" style="shape=table;startSize=25;container=1;collapsible=0;childLayout=tableLayout;fixedRows=1;rowLines=1;fontStyle=1;align=center;resizeLast=1;fontFamily=Times New Roman;fontSize=16;fillColor=#1ba1e2;fontColor=#ffffff;strokeColor=#006EAF;" vertex="1" parent="1">
          <mxGeometry x="-50" y="10" width="190" height="148" as="geometry" />
        </mxCell>
        <mxCell id="mgPYWqPKoZ_mL2Z6Ottz-2" style="shape=tableRow;horizontal=0;startSize=0;swimlaneHead=0;swimlaneBody=0;fillColor=none;collapsible=0;dropTarget=0;points=[[0,0.5],[1,0.5]];portConstraint=eastwest;top=0;left=0;right=0;bottom=0;fontFamily=Times New Roman;fontStyle=1;fontSize=16;" vertex="1" parent="mgPYWqPKoZ_mL2Z6Ottz-1">
          <mxGeometry y="25" width="190" height="34" as="geometry" />
        </mxCell>
        <mxCell id="mgPYWqPKoZ_mL2Z6Ottz-3" value="int" style="shape=partialRectangle;connectable=0;fillColor=none;top=0;left=0;bottom=0;right=0;align=left;spacingLeft=2;overflow=hidden;fontSize=16;fontFamily=Times New Roman;fontStyle=1" vertex="1" parent="mgPYWqPKoZ_mL2Z6Ottz-2">
          <mxGeometry width="50" height="34" as="geometry">
            <mxRectangle width="50" height="34" as="alternateBounds" />
          </mxGeometry>
        </mxCell>
        <mxCell id="mgPYWqPKoZ_mL2Z6Ottz-4" value="user_id" style="shape=partialRectangle;connectable=0;fillColor=none;top=0;left=0;bottom=0;right=0;align=left;spacingLeft=2;overflow=hidden;fontSize=16;fontFamily=Times New Roman;fontStyle=1" vertex="1" parent="mgPYWqPKoZ_mL2Z6Ottz-2">
          <mxGeometry x="50" width="80" height="34" as="geometry">
            <mxRectangle width="80" height="34" as="alternateBounds" />
          </mxGeometry>
        </mxCell>
        <mxCell id="mgPYWqPKoZ_mL2Z6Ottz-5" value="PK" style="shape=partialRectangle;connectable=0;fillColor=none;top=0;left=0;bottom=0;right=0;align=left;spacingLeft=2;overflow=hidden;fontSize=16;fontFamily=Times New Roman;fontStyle=1" vertex="1" parent="mgPYWqPKoZ_mL2Z6Ottz-2">
          <mxGeometry x="130" width="60" height="34" as="geometry">
            <mxRectangle width="60" height="34" as="alternateBounds" />
          </mxGeometry>
        </mxCell>
        <mxCell id="mgPYWqPKoZ_mL2Z6Ottz-6" style="shape=tableRow;horizontal=0;startSize=0;swimlaneHead=0;swimlaneBody=0;fillColor=none;collapsible=0;dropTarget=0;points=[[0,0.5],[1,0.5]];portConstraint=eastwest;top=0;left=0;right=0;bottom=0;fontFamily=Times New Roman;fontStyle=1;fontSize=16;" vertex="1" parent="mgPYWqPKoZ_mL2Z6Ottz-1">
          <mxGeometry y="59" width="190" height="40" as="geometry" />
        </mxCell>
        <mxCell id="mgPYWqPKoZ_mL2Z6Ottz-7" value="string" style="shape=partialRectangle;connectable=0;fillColor=none;top=0;left=0;bottom=0;right=0;align=left;spacingLeft=2;overflow=hidden;fontSize=16;fontFamily=Times New Roman;fontStyle=1" vertex="1" parent="mgPYWqPKoZ_mL2Z6Ottz-6">
          <mxGeometry width="50" height="40" as="geometry">
            <mxRectangle width="50" height="40" as="alternateBounds" />
          </mxGeometry>
        </mxCell>
        <mxCell id="mgPYWqPKoZ_mL2Z6Ottz-8" value="name" style="shape=partialRectangle;connectable=0;fillColor=none;top=0;left=0;bottom=0;right=0;align=left;spacingLeft=2;overflow=hidden;fontSize=16;fontFamily=Times New Roman;fontStyle=1" vertex="1" parent="mgPYWqPKoZ_mL2Z6Ottz-6">
          <mxGeometry x="50" width="80" height="40" as="geometry">
            <mxRectangle width="80" height="40" as="alternateBounds" />
          </mxGeometry>
        </mxCell>
        <mxCell id="mgPYWqPKoZ_mL2Z6Ottz-9" value="" style="shape=partialRectangle;connectable=0;fillColor=none;top=0;left=0;bottom=0;right=0;align=left;spacingLeft=2;overflow=hidden;fontSize=16;fontFamily=Times New Roman;fontStyle=1" vertex="1" parent="mgPYWqPKoZ_mL2Z6Ottz-6">
          <mxGeometry x="130" width="60" height="40" as="geometry">
            <mxRectangle width="60" height="40" as="alternateBounds" />
          </mxGeometry>
        </mxCell>
        <mxCell id="mgPYWqPKoZ_mL2Z6Ottz-10" style="shape=tableRow;horizontal=0;startSize=0;swimlaneHead=0;swimlaneBody=0;fillColor=none;collapsible=0;dropTarget=0;points=[[0,0.5],[1,0.5]];portConstraint=eastwest;top=0;left=0;right=0;bottom=0;fontFamily=Times New Roman;fontStyle=1;fontSize=16;" vertex="1" parent="mgPYWqPKoZ_mL2Z6Ottz-1">
          <mxGeometry y="99" width="190" height="49" as="geometry" />
        </mxCell>
        <mxCell id="mgPYWqPKoZ_mL2Z6Ottz-11" value="string" style="shape=partialRectangle;connectable=0;fillColor=none;top=0;left=0;bottom=0;right=0;align=left;spacingLeft=2;overflow=hidden;fontSize=16;fontFamily=Times New Roman;fontStyle=1" vertex="1" parent="mgPYWqPKoZ_mL2Z6Ottz-10">
          <mxGeometry width="50" height="49" as="geometry">
            <mxRectangle width="50" height="49" as="alternateBounds" />
          </mxGeometry>
        </mxCell>
        <mxCell id="mgPYWqPKoZ_mL2Z6Ottz-12" value="email" style="shape=partialRectangle;connectable=0;fillColor=none;top=0;left=0;bottom=0;right=0;align=left;spacingLeft=2;overflow=hidden;fontSize=16;fontFamily=Times New Roman;fontStyle=1" vertex="1" parent="mgPYWqPKoZ_mL2Z6Ottz-10">
          <mxGeometry x="50" width="80" height="49" as="geometry">
            <mxRectangle width="80" height="49" as="alternateBounds" />
          </mxGeometry>
        </mxCell>
        <mxCell id="mgPYWqPKoZ_mL2Z6Ottz-13" value="" style="shape=partialRectangle;connectable=0;fillColor=none;top=0;left=0;bottom=0;right=0;align=left;spacingLeft=2;overflow=hidden;fontSize=16;fontFamily=Times New Roman;fontStyle=1" vertex="1" parent="mgPYWqPKoZ_mL2Z6Ottz-10">
          <mxGeometry x="130" width="60" height="49" as="geometry">
            <mxRectangle width="60" height="49" as="alternateBounds" />
          </mxGeometry>
        </mxCell>
        <mxCell id="mgPYWqPKoZ_mL2Z6Ottz-14" value="TRANSACTIONS" style="shape=table;startSize=25;container=1;collapsible=0;childLayout=tableLayout;fixedRows=1;rowLines=1;fontStyle=1;align=center;resizeLast=1;fontFamily=Times New Roman;fontSize=16;fillColor=#1ba1e2;fontColor=#ffffff;strokeColor=#006EAF;" vertex="1" parent="1">
          <mxGeometry x="108" y="251" width="192" height="119" as="geometry" />
        </mxCell>
        <mxCell id="mgPYWqPKoZ_mL2Z6Ottz-15" style="shape=tableRow;horizontal=0;startSize=0;swimlaneHead=0;swimlaneBody=0;fillColor=none;collapsible=0;dropTarget=0;points=[[0,0.5],[1,0.5]];portConstraint=eastwest;top=0;left=0;right=0;bottom=0;fontFamily=Times New Roman;fontStyle=1;fontSize=16;" vertex="1" parent="mgPYWqPKoZ_mL2Z6Ottz-14">
          <mxGeometry y="25" width="192" height="34" as="geometry" />
        </mxCell>
        <mxCell id="mgPYWqPKoZ_mL2Z6Ottz-16" value="int" style="shape=partialRectangle;connectable=0;fillColor=none;top=0;left=0;bottom=0;right=0;align=left;spacingLeft=2;overflow=hidden;fontSize=16;fontFamily=Times New Roman;fontStyle=1" vertex="1" parent="mgPYWqPKoZ_mL2Z6Ottz-15">
          <mxGeometry width="52" height="34" as="geometry">
            <mxRectangle width="52" height="34" as="alternateBounds" />
          </mxGeometry>
        </mxCell>
        <mxCell id="mgPYWqPKoZ_mL2Z6Ottz-17" value="transaction_id" style="shape=partialRectangle;connectable=0;fillColor=none;top=0;left=0;bottom=0;right=0;align=left;spacingLeft=2;overflow=hidden;fontSize=16;fontFamily=Times New Roman;fontStyle=1" vertex="1" parent="mgPYWqPKoZ_mL2Z6Ottz-15">
          <mxGeometry x="52" width="80" height="34" as="geometry">
            <mxRectangle width="80" height="34" as="alternateBounds" />
          </mxGeometry>
        </mxCell>
        <mxCell id="mgPYWqPKoZ_mL2Z6Ottz-18" value="PK" style="shape=partialRectangle;connectable=0;fillColor=none;top=0;left=0;bottom=0;right=0;align=left;spacingLeft=2;overflow=hidden;fontSize=16;fontFamily=Times New Roman;fontStyle=1" vertex="1" parent="mgPYWqPKoZ_mL2Z6Ottz-15">
          <mxGeometry x="132" width="60" height="34" as="geometry">
            <mxRectangle width="60" height="34" as="alternateBounds" />
          </mxGeometry>
        </mxCell>
        <mxCell id="mgPYWqPKoZ_mL2Z6Ottz-19" style="shape=tableRow;horizontal=0;startSize=0;swimlaneHead=0;swimlaneBody=0;fillColor=none;collapsible=0;dropTarget=0;points=[[0,0.5],[1,0.5]];portConstraint=eastwest;top=0;left=0;right=0;bottom=0;fontFamily=Times New Roman;fontStyle=1;fontSize=16;" vertex="1" parent="mgPYWqPKoZ_mL2Z6Ottz-14">
          <mxGeometry y="59" width="192" height="30" as="geometry" />
        </mxCell>
        <mxCell id="mgPYWqPKoZ_mL2Z6Ottz-20" value="date" style="shape=partialRectangle;connectable=0;fillColor=none;top=0;left=0;bottom=0;right=0;align=left;spacingLeft=2;overflow=hidden;fontSize=16;fontFamily=Times New Roman;fontStyle=1" vertex="1" parent="mgPYWqPKoZ_mL2Z6Ottz-19">
          <mxGeometry width="52" height="30" as="geometry">
            <mxRectangle width="52" height="30" as="alternateBounds" />
          </mxGeometry>
        </mxCell>
        <mxCell id="mgPYWqPKoZ_mL2Z6Ottz-21" value="borrow_date" style="shape=partialRectangle;connectable=0;fillColor=none;top=0;left=0;bottom=0;right=0;align=left;spacingLeft=2;overflow=hidden;fontSize=16;fontFamily=Times New Roman;fontStyle=1" vertex="1" parent="mgPYWqPKoZ_mL2Z6Ottz-19">
          <mxGeometry x="52" width="80" height="30" as="geometry">
            <mxRectangle width="80" height="30" as="alternateBounds" />
          </mxGeometry>
        </mxCell>
        <mxCell id="mgPYWqPKoZ_mL2Z6Ottz-22" value="" style="shape=partialRectangle;connectable=0;fillColor=none;top=0;left=0;bottom=0;right=0;align=left;spacingLeft=2;overflow=hidden;fontSize=16;fontFamily=Times New Roman;fontStyle=1" vertex="1" parent="mgPYWqPKoZ_mL2Z6Ottz-19">
          <mxGeometry x="132" width="60" height="30" as="geometry">
            <mxRectangle width="60" height="30" as="alternateBounds" />
          </mxGeometry>
        </mxCell>
        <mxCell id="mgPYWqPKoZ_mL2Z6Ottz-23" style="shape=tableRow;horizontal=0;startSize=0;swimlaneHead=0;swimlaneBody=0;fillColor=none;collapsible=0;dropTarget=0;points=[[0,0.5],[1,0.5]];portConstraint=eastwest;top=0;left=0;right=0;bottom=0;fontFamily=Times New Roman;fontStyle=1;fontSize=16;" vertex="1" parent="mgPYWqPKoZ_mL2Z6Ottz-14">
          <mxGeometry y="89" width="192" height="30" as="geometry" />
        </mxCell>
        <mxCell id="mgPYWqPKoZ_mL2Z6Ottz-24" value="date" style="shape=partialRectangle;connectable=0;fillColor=none;top=0;left=0;bottom=0;right=0;align=left;spacingLeft=2;overflow=hidden;fontSize=16;fontFamily=Times New Roman;fontStyle=1" vertex="1" parent="mgPYWqPKoZ_mL2Z6Ottz-23">
          <mxGeometry width="52" height="30" as="geometry">
            <mxRectangle width="52" height="30" as="alternateBounds" />
          </mxGeometry>
        </mxCell>
        <mxCell id="mgPYWqPKoZ_mL2Z6Ottz-25" value="return_date" style="shape=partialRectangle;connectable=0;fillColor=none;top=0;left=0;bottom=0;right=0;align=left;spacingLeft=2;overflow=hidden;fontSize=16;fontFamily=Times New Roman;fontStyle=1" vertex="1" parent="mgPYWqPKoZ_mL2Z6Ottz-23">
          <mxGeometry x="52" width="80" height="30" as="geometry">
            <mxRectangle width="80" height="30" as="alternateBounds" />
          </mxGeometry>
        </mxCell>
        <mxCell id="mgPYWqPKoZ_mL2Z6Ottz-26" value="" style="shape=partialRectangle;connectable=0;fillColor=none;top=0;left=0;bottom=0;right=0;align=left;spacingLeft=2;overflow=hidden;fontSize=16;fontFamily=Times New Roman;fontStyle=1" vertex="1" parent="mgPYWqPKoZ_mL2Z6Ottz-23">
          <mxGeometry x="132" width="60" height="30" as="geometry">
            <mxRectangle width="60" height="30" as="alternateBounds" />
          </mxGeometry>
        </mxCell>
        <mxCell id="mgPYWqPKoZ_mL2Z6Ottz-27" value="BOOKS" style="shape=table;startSize=25;container=1;collapsible=0;childLayout=tableLayout;fixedRows=1;rowLines=1;fontStyle=1;align=center;resizeLast=1;fontFamily=Times New Roman;fontSize=16;fillColor=#1ba1e2;fontColor=#ffffff;strokeColor=#006EAF;" vertex="1" parent="1">
          <mxGeometry x="226" y="-70" width="199" height="201" as="geometry" />
        </mxCell>
        <mxCell id="mgPYWqPKoZ_mL2Z6Ottz-28" style="shape=tableRow;horizontal=0;startSize=0;swimlaneHead=0;swimlaneBody=0;fillColor=none;collapsible=0;dropTarget=0;points=[[0,0.5],[1,0.5]];portConstraint=eastwest;top=0;left=0;right=0;bottom=0;fontFamily=Times New Roman;fontStyle=1;fontSize=16;" vertex="1" parent="mgPYWqPKoZ_mL2Z6Ottz-27">
          <mxGeometry y="25" width="199" height="35" as="geometry" />
        </mxCell>
        <mxCell id="mgPYWqPKoZ_mL2Z6Ottz-29" value="int" style="shape=partialRectangle;connectable=0;fillColor=none;top=0;left=0;bottom=0;right=0;align=left;spacingLeft=2;overflow=hidden;fontSize=16;fontFamily=Times New Roman;fontStyle=1" vertex="1" parent="mgPYWqPKoZ_mL2Z6Ottz-28">
          <mxGeometry width="36" height="35" as="geometry">
            <mxRectangle width="36" height="35" as="alternateBounds" />
          </mxGeometry>
        </mxCell>
        <mxCell id="mgPYWqPKoZ_mL2Z6Ottz-30" value="book_id" style="shape=partialRectangle;connectable=0;fillColor=none;top=0;left=0;bottom=0;right=0;align=left;spacingLeft=2;overflow=hidden;fontSize=16;fontFamily=Times New Roman;fontStyle=1" vertex="1" parent="mgPYWqPKoZ_mL2Z6Ottz-28">
          <mxGeometry x="36" width="93" height="35" as="geometry">
            <mxRectangle width="93" height="35" as="alternateBounds" />
          </mxGeometry>
        </mxCell>
        <mxCell id="mgPYWqPKoZ_mL2Z6Ottz-31" value="PK" style="shape=partialRectangle;connectable=0;fillColor=none;top=0;left=0;bottom=0;right=0;align=left;spacingLeft=2;overflow=hidden;fontSize=16;fontFamily=Times New Roman;fontStyle=1" vertex="1" parent="mgPYWqPKoZ_mL2Z6Ottz-28">
          <mxGeometry x="129" width="70" height="35" as="geometry">
            <mxRectangle width="70" height="35" as="alternateBounds" />
          </mxGeometry>
        </mxCell>
        <mxCell id="mgPYWqPKoZ_mL2Z6Ottz-32" style="shape=tableRow;horizontal=0;startSize=0;swimlaneHead=0;swimlaneBody=0;fillColor=none;collapsible=0;dropTarget=0;points=[[0,0.5],[1,0.5]];portConstraint=eastwest;top=0;left=0;right=0;bottom=0;fontFamily=Times New Roman;fontStyle=1;fontSize=16;" vertex="1" parent="mgPYWqPKoZ_mL2Z6Ottz-27">
          <mxGeometry y="60" width="199" height="34" as="geometry" />
        </mxCell>
        <mxCell id="mgPYWqPKoZ_mL2Z6Ottz-33" value="string" style="shape=partialRectangle;connectable=0;fillColor=none;top=0;left=0;bottom=0;right=0;align=left;spacingLeft=2;overflow=hidden;fontSize=16;fontFamily=Times New Roman;fontStyle=1" vertex="1" parent="mgPYWqPKoZ_mL2Z6Ottz-32">
          <mxGeometry width="36" height="34" as="geometry">
            <mxRectangle width="36" height="34" as="alternateBounds" />
          </mxGeometry>
        </mxCell>
        <mxCell id="mgPYWqPKoZ_mL2Z6Ottz-34" value="title" style="shape=partialRectangle;connectable=0;fillColor=none;top=0;left=0;bottom=0;right=0;align=left;spacingLeft=2;overflow=hidden;fontSize=16;fontFamily=Times New Roman;fontStyle=1" vertex="1" parent="mgPYWqPKoZ_mL2Z6Ottz-32">
          <mxGeometry x="36" width="93" height="34" as="geometry">
            <mxRectangle width="93" height="34" as="alternateBounds" />
          </mxGeometry>
        </mxCell>
        <mxCell id="mgPYWqPKoZ_mL2Z6Ottz-35" value="" style="shape=partialRectangle;connectable=0;fillColor=none;top=0;left=0;bottom=0;right=0;align=left;spacingLeft=2;overflow=hidden;fontSize=16;fontFamily=Times New Roman;fontStyle=1" vertex="1" parent="mgPYWqPKoZ_mL2Z6Ottz-32">
          <mxGeometry x="129" width="70" height="34" as="geometry">
            <mxRectangle width="70" height="34" as="alternateBounds" />
          </mxGeometry>
        </mxCell>
        <mxCell id="mgPYWqPKoZ_mL2Z6Ottz-36" style="shape=tableRow;horizontal=0;startSize=0;swimlaneHead=0;swimlaneBody=0;fillColor=none;collapsible=0;dropTarget=0;points=[[0,0.5],[1,0.5]];portConstraint=eastwest;top=0;left=0;right=0;bottom=0;fontFamily=Times New Roman;fontStyle=1;fontSize=16;" vertex="1" parent="mgPYWqPKoZ_mL2Z6Ottz-27">
          <mxGeometry y="94" width="199" height="33" as="geometry" />
        </mxCell>
        <mxCell id="mgPYWqPKoZ_mL2Z6Ottz-37" value="string" style="shape=partialRectangle;connectable=0;fillColor=none;top=0;left=0;bottom=0;right=0;align=left;spacingLeft=2;overflow=hidden;fontSize=16;fontFamily=Times New Roman;fontStyle=1" vertex="1" parent="mgPYWqPKoZ_mL2Z6Ottz-36">
          <mxGeometry width="36" height="33" as="geometry">
            <mxRectangle width="36" height="33" as="alternateBounds" />
          </mxGeometry>
        </mxCell>
        <mxCell id="mgPYWqPKoZ_mL2Z6Ottz-38" value="author" style="shape=partialRectangle;connectable=0;fillColor=none;top=0;left=0;bottom=0;right=0;align=left;spacingLeft=2;overflow=hidden;fontSize=16;fontFamily=Times New Roman;fontStyle=1" vertex="1" parent="mgPYWqPKoZ_mL2Z6Ottz-36">
          <mxGeometry x="36" width="93" height="33" as="geometry">
            <mxRectangle width="93" height="33" as="alternateBounds" />
          </mxGeometry>
        </mxCell>
        <mxCell id="mgPYWqPKoZ_mL2Z6Ottz-39" value="" style="shape=partialRectangle;connectable=0;fillColor=none;top=0;left=0;bottom=0;right=0;align=left;spacingLeft=2;overflow=hidden;fontSize=16;fontFamily=Times New Roman;fontStyle=1" vertex="1" parent="mgPYWqPKoZ_mL2Z6Ottz-36">
          <mxGeometry x="129" width="70" height="33" as="geometry">
            <mxRectangle width="70" height="33" as="alternateBounds" />
          </mxGeometry>
        </mxCell>
        <mxCell id="mgPYWqPKoZ_mL2Z6Ottz-40" style="shape=tableRow;horizontal=0;startSize=0;swimlaneHead=0;swimlaneBody=0;fillColor=none;collapsible=0;dropTarget=0;points=[[0,0.5],[1,0.5]];portConstraint=eastwest;top=0;left=0;right=0;bottom=0;fontFamily=Times New Roman;fontStyle=1;fontSize=16;" vertex="1" parent="mgPYWqPKoZ_mL2Z6Ottz-27">
          <mxGeometry y="127" width="199" height="32" as="geometry" />
        </mxCell>
        <mxCell id="mgPYWqPKoZ_mL2Z6Ottz-41" value="string" style="shape=partialRectangle;connectable=0;fillColor=none;top=0;left=0;bottom=0;right=0;align=left;spacingLeft=2;overflow=hidden;fontSize=16;fontFamily=Times New Roman;fontStyle=1" vertex="1" parent="mgPYWqPKoZ_mL2Z6Ottz-40">
          <mxGeometry width="36" height="32" as="geometry">
            <mxRectangle width="36" height="32" as="alternateBounds" />
          </mxGeometry>
        </mxCell>
        <mxCell id="mgPYWqPKoZ_mL2Z6Ottz-42" value="genre" style="shape=partialRectangle;connectable=0;fillColor=none;top=0;left=0;bottom=0;right=0;align=left;spacingLeft=2;overflow=hidden;fontSize=16;fontFamily=Times New Roman;fontStyle=1" vertex="1" parent="mgPYWqPKoZ_mL2Z6Ottz-40">
          <mxGeometry x="36" width="93" height="32" as="geometry">
            <mxRectangle width="93" height="32" as="alternateBounds" />
          </mxGeometry>
        </mxCell>
        <mxCell id="mgPYWqPKoZ_mL2Z6Ottz-43" value="" style="shape=partialRectangle;connectable=0;fillColor=none;top=0;left=0;bottom=0;right=0;align=left;spacingLeft=2;overflow=hidden;fontSize=16;fontFamily=Times New Roman;fontStyle=1" vertex="1" parent="mgPYWqPKoZ_mL2Z6Ottz-40">
          <mxGeometry x="129" width="70" height="32" as="geometry">
            <mxRectangle width="70" height="32" as="alternateBounds" />
          </mxGeometry>
        </mxCell>
        <mxCell id="mgPYWqPKoZ_mL2Z6Ottz-44" style="shape=tableRow;horizontal=0;startSize=0;swimlaneHead=0;swimlaneBody=0;fillColor=none;collapsible=0;dropTarget=0;points=[[0,0.5],[1,0.5]];portConstraint=eastwest;top=0;left=0;right=0;bottom=0;fontFamily=Times New Roman;fontStyle=1;fontSize=16;" vertex="1" parent="mgPYWqPKoZ_mL2Z6Ottz-27">
          <mxGeometry y="159" width="199" height="41" as="geometry" />
        </mxCell>
        <mxCell id="mgPYWqPKoZ_mL2Z6Ottz-45" value="int" style="shape=partialRectangle;connectable=0;fillColor=none;top=0;left=0;bottom=0;right=0;align=left;spacingLeft=2;overflow=hidden;fontSize=16;fontFamily=Times New Roman;fontStyle=1" vertex="1" parent="mgPYWqPKoZ_mL2Z6Ottz-44">
          <mxGeometry width="36" height="41" as="geometry">
            <mxRectangle width="36" height="41" as="alternateBounds" />
          </mxGeometry>
        </mxCell>
        <mxCell id="mgPYWqPKoZ_mL2Z6Ottz-46" value="quantity" style="shape=partialRectangle;connectable=0;fillColor=none;top=0;left=0;bottom=0;right=0;align=left;spacingLeft=2;overflow=hidden;fontSize=16;fontFamily=Times New Roman;fontStyle=1" vertex="1" parent="mgPYWqPKoZ_mL2Z6Ottz-44">
          <mxGeometry x="36" width="93" height="41" as="geometry">
            <mxRectangle width="93" height="41" as="alternateBounds" />
          </mxGeometry>
        </mxCell>
        <mxCell id="mgPYWqPKoZ_mL2Z6Ottz-47" value="" style="shape=partialRectangle;connectable=0;fillColor=none;top=0;left=0;bottom=0;right=0;align=left;spacingLeft=2;overflow=hidden;fontSize=16;fontFamily=Times New Roman;fontStyle=1" vertex="1" parent="mgPYWqPKoZ_mL2Z6Ottz-44">
          <mxGeometry x="129" width="70" height="41" as="geometry">
            <mxRectangle width="70" height="41" as="alternateBounds" />
          </mxGeometry>
        </mxCell>
        <mxCell id="mgPYWqPKoZ_mL2Z6Ottz-48" value="makes" style="curved=1;startArrow=ERmandOne;startSize=10;;endArrow=ERzeroToMany;endSize=10;;exitX=0.5;exitY=1;entryX=0.13;entryY=0;rounded=0;fontFamily=Times New Roman;fontStyle=1;fontSize=16;" edge="1" parent="1" source="mgPYWqPKoZ_mL2Z6Ottz-1" target="mgPYWqPKoZ_mL2Z6Ottz-14">
          <mxGeometry relative="1" as="geometry">
            <Array as="points">
              <mxPoint x="70" y="201" />
            </Array>
          </mxGeometry>
        </mxCell>
        <mxCell id="mgPYWqPKoZ_mL2Z6Ottz-49" value="includes" style="curved=1;startArrow=ERmandOne;startSize=10;;endArrow=ERzeroToMany;endSize=10;;exitX=0.5;exitY=1;entryX=0.86;entryY=0;rounded=0;fontFamily=Times New Roman;fontStyle=1;fontSize=16;" edge="1" parent="1" source="mgPYWqPKoZ_mL2Z6Ottz-27" target="mgPYWqPKoZ_mL2Z6Ottz-14">
          <mxGeometry relative="1" as="geometry">
            <Array as="points">
              <mxPoint x="274" y="201" />
            </Array>
          </mxGeometry>
        </mxCell>
      </root>
    </mxGraphModel>
  </diagram>
</mxfile>
